<?xml version="1.0" encoding="UTF-8" standalone="no"?>
<!DOCTYPE svg PUBLIC "-//W3C//DTD SVG 1.1//EN"
 "http://www.w3.org/Graphics/SVG/1.1/DTD/svg11.dtd">
<!-- Generated by graphviz version 14.1.2 (0)
 -->
<!-- Title: JenkinsAgents Pages: 1 -->
<svg width="1900pt" height="641pt"
 viewBox="0.00 0.00 1900.00 641.00" xmlns="http://www.w3.org/2000/svg" xmlns:xlink="http://www.w3.org/1999/xlink">
<g id="graph0" class="graph" transform="scale(1 1) rotate(0) translate(25.2 615.95)">
<title>JenkinsAgents</title>
<polygon fill="white" stroke="none" points="-25.2,25.2 -25.2,-615.95 1875.04,-615.95 1875.04,25.2 -25.2,25.2"/>
<text xml:space="preserve" text-anchor="middle" x="924.92" y="-567.75" font-family="Helvetica,sans-Serif" font-size="20.00">Jenkins Controller and Ephemeral Agent Architecture</text>
<g id="clust1" class="cluster">
<title>cluster_jenkins</title>
<path fill="#fcfcfd" stroke="#cbd5e1" stroke-width="1.1" d="M583,-8C583,-8 849,-8 849,-8 855,-8 861,-14 861,-20 861,-20 861,-233.45 861,-233.45 861,-239.45 855,-245.45 849,-245.45 849,-245.45 583,-245.45 583,-245.45 577,-245.45 571,-239.45 571,-233.45 571,-233.45 571,-20 571,-20 571,-14 577,-8 583,-8"/>
<text xml:space="preserve" text-anchor="middle" x="716" y="-222.45" font-family="Helvetica,sans-Serif" font-size="20.00">jenkins namespace</text>
</g>
<g id="clust2" class="cluster">
<title>cluster_build</title>
<path fill="#f8fbff" stroke="#93c5fd" stroke-width="1.2" d="M20,-117.3C20,-117.3 286,-117.3 286,-117.3 292,-117.3 298,-123.3 298,-129.3 298,-129.3 298,-226.7 298,-226.7 298,-232.7 292,-238.7 286,-238.7 286,-238.7 20,-238.7 20,-238.7 14,-238.7 8,-232.7 8,-226.7 8,-226.7 8,-129.3 8,-129.3 8,-123.3 14,-117.3 20,-117.3"/>
<text xml:space="preserve" text-anchor="middle" x="153" y="-215.7" font-family="Helvetica,sans-Serif" font-size="20.00">ci&#45;build&#45;agents namespace</text>
</g>
<g id="clust3" class="cluster">
<title>cluster_buildkit</title>
<path fill="#f8fbff" stroke="#93c5fd" stroke-width="1.2" d="M257,-429.35C257,-429.35 523,-429.35 523,-429.35 529,-429.35 535,-435.35 535,-441.35 535,-441.35 535,-538.75 535,-538.75 535,-544.75 529,-550.75 523,-550.75 523,-550.75 257,-550.75 257,-550.75 251,-550.75 245,-544.75 245,-538.75 245,-538.75 245,-441.35 245,-441.35 245,-435.35 251,-429.35 257,-429.35"/>
<text xml:space="preserve" text-anchor="middle" x="390" y="-527.75" font-family="Helvetica,sans-Serif" font-size="20.00">buildkit&#45;system namespace</text>
</g>
<g id="clust4" class="cluster">
<title>cluster_deploy</title>
<path fill="#f8fbff" stroke="#93c5fd" stroke-width="1.2" d="M391,-276.7C391,-276.7 956,-276.7 956,-276.7 962,-276.7 968,-282.7 968,-288.7 968,-288.7 968,-386.1 968,-386.1 968,-392.1 962,-398.1 956,-398.1 956,-398.1 391,-398.1 391,-398.1 385,-398.1 379,-392.1 379,-386.1 379,-386.1 379,-288.7 379,-288.7 379,-282.7 385,-276.7 391,-276.7"/>
<text xml:space="preserve" text-anchor="middle" x="673.5" y="-375.1" font-family="Helvetica,sans-Serif" font-size="20.00">ci&#45;deploy&#45;agents namespace</text>
</g>
<!-- github -->
<g id="node1" class="node">
<title>github</title>
<path fill="#f8fafc" stroke="#334155" stroke-width="1.2" d="M1248.8,-326.1C1248.8,-326.1 999.2,-326.1 999.2,-326.1 993.2,-326.1 987.2,-320.1 987.2,-314.1 987.2,-314.1 987.2,-296.7 987.2,-296.7 987.2,-290.7 993.2,-284.7 999.2,-284.7 999.2,-284.7 1248.8,-284.7 1248.8,-284.7 1254.8,-284.7 1260.8,-290.7 1260.8,-296.7 1260.8,-296.7 1260.8,-314.1 1260.8,-314.1 1260.8,-320.1 1254.8,-326.1 1248.8,-326.1"/>
<text xml:space="preserve" text-anchor="middle" x="1124" y="-308.45" font-family="Helvetica,sans-Serif" font-size="11.00" fill="#0f172a">GitHub</text>
<text xml:space="preserve" text-anchor="middle" x="1124" y="-294.95" font-family="Helvetica,sans-Serif" font-size="11.00" fill="#0f172a">Source Repository</text>
</g>
<!-- jenkins -->
<g id="node2" class="node">
<title>jenkins</title>
<path fill="#f1f5f9" stroke="#334155" stroke-width="1.2" d="M840.8,-173.45C840.8,-173.45 591.2,-173.45 591.2,-173.45 585.2,-173.45 579.2,-167.45 579.2,-161.45 579.2,-161.45 579.2,-130.55 579.2,-130.55 579.2,-124.55 585.2,-118.55 591.2,-118.55 591.2,-118.55 840.8,-118.55 840.8,-118.55 846.8,-118.55 852.8,-124.55 852.8,-130.55 852.8,-130.55 852.8,-161.45 852.8,-161.45 852.8,-167.45 846.8,-173.45 840.8,-173.45"/>
<text xml:space="preserve" text-anchor="middle" x="716" y="-155.8" font-family="Helvetica,sans-Serif" font-size="11.00" fill="#0f172a">Jenkins Controller</text>
<text xml:space="preserve" text-anchor="middle" x="716" y="-142.3" font-family="Helvetica,sans-Serif" font-size="11.00" fill="#0f172a">Always running</text>
<text xml:space="preserve" text-anchor="middle" x="716" y="-128.8" font-family="Helvetica,sans-Serif" font-size="11.00" fill="#0f172a">Pipeline orchestration</text>
</g>
<!-- github&#45;&gt;jenkins -->
<g id="edge2" class="edge">
<title>github&#45;&gt;jenkins</title>
<path fill="none" stroke="#475569" stroke-width="1.1" d="M1103.05,-284.26C1088.24,-270.02 1071,-253.45 1071,-253.45 1071,-253.45 952,-245.45 952,-245.45 952,-245.45 858.43,-206.42 789.12,-177.5"/>
<polygon fill="#475569" stroke="#475569" stroke-width="1.1" points="790.27,-175.14 782.34,-174.67 788.25,-179.98 790.27,-175.14"/>
<text xml:space="preserve" text-anchor="middle" x="1128.2" y="-256.15" font-family="Helvetica,sans-Serif" font-size="9.00" fill="#475569">webhook / checkout</text>
</g>
<!-- pvc -->
<g id="node3" class="node">
<title>pvc</title>
<path fill="#f8fafc" stroke="#334155" stroke-width="1.2" d="M822.8,-57.4C822.8,-57.4 609.2,-57.4 609.2,-57.4 603.2,-57.4 597.2,-51.4 597.2,-45.4 597.2,-45.4 597.2,-28 597.2,-28 597.2,-22 603.2,-16 609.2,-16 609.2,-16 822.8,-16 822.8,-16 828.8,-16 834.8,-22 834.8,-28 834.8,-28 834.8,-45.4 834.8,-45.4 834.8,-51.4 828.8,-57.4 822.8,-57.4"/>
<text xml:space="preserve" text-anchor="middle" x="716" y="-39.75" font-family="Helvetica,sans-Serif" font-size="11.00" fill="#0f172a">Jenkins Persistent Storage</text>
<text xml:space="preserve" text-anchor="middle" x="716" y="-26.25" font-family="Helvetica,sans-Serif" font-size="11.00" fill="#0f172a">JENKINS_HOME</text>
</g>
<!-- jenkins&#45;&gt;pvc -->
<g id="edge1" class="edge">
<title>jenkins&#45;&gt;pvc</title>
<path fill="none" stroke="#475569" stroke-width="1.1" stroke-dasharray="5,2" d="M716,-118.2C716,-102.53 716,-82.74 716,-66.71"/>
<polygon fill="#475569" stroke="#475569" stroke-width="1.1" points="718.63,-66.92 716,-59.42 713.38,-66.92 718.63,-66.92"/>
<text xml:space="preserve" text-anchor="middle" x="751.25" y="-90" font-family="Helvetica,sans-Serif" font-size="9.00" fill="#475569">persistent state</text>
</g>
<!-- build -->
<g id="node4" class="node">
<title>build</title>
<path fill="#eff6ff" stroke="#60a5fa" stroke-width="1.2" d="M277.8,-166.7C277.8,-166.7 28.2,-166.7 28.2,-166.7 22.2,-166.7 16.2,-160.7 16.2,-154.7 16.2,-154.7 16.2,-137.3 16.2,-137.3 16.2,-131.3 22.2,-125.3 28.2,-125.3 28.2,-125.3 277.8,-125.3 277.8,-125.3 283.8,-125.3 289.8,-131.3 289.8,-137.3 289.8,-137.3 289.8,-154.7 289.8,-154.7 289.8,-160.7 283.8,-166.7 277.8,-166.7"/>
<text xml:space="preserve" text-anchor="middle" x="153" y="-149.05" font-family="Helvetica,sans-Serif" font-size="11.00" fill="#0f172a">Ephemeral Build Agent</text>
<text xml:space="preserve" text-anchor="middle" x="153" y="-135.55" font-family="Helvetica,sans-Serif" font-size="11.00" fill="#0f172a">ServiceAccount: jenkins&#45;build&#45;agent</text>
</g>
<!-- jenkins&#45;&gt;build -->
<g id="edge3" class="edge">
<title>jenkins&#45;&gt;build</title>
<path fill="none" stroke="#475569" stroke-width="1.1" d="M657.53,-173.98C603.65,-199.77 532,-234.06 532,-234.06 532,-234.06 309,-234.06 309,-234.06 309,-234.06 244.23,-197.5 198.16,-171.49"/>
<polygon fill="#475569" stroke="#475569" stroke-width="1.1" points="199.64,-169.31 191.82,-167.91 197.06,-173.88 199.64,-169.31"/>
<text xml:space="preserve" text-anchor="middle" x="439" y="-256.15" font-family="Helvetica,sans-Serif" font-size="9.00" fill="#475569">create ephemeral Pod</text>
</g>
<!-- staging_agent -->
<g id="node8" class="node">
<title>staging_agent</title>
<path fill="#eff6ff" stroke="#60a5fa" stroke-width="1.2" d="M947.8,-326.1C947.8,-326.1 698.2,-326.1 698.2,-326.1 692.2,-326.1 686.2,-320.1 686.2,-314.1 686.2,-314.1 686.2,-296.7 686.2,-296.7 686.2,-290.7 692.2,-284.7 698.2,-284.7 698.2,-284.7 947.8,-284.7 947.8,-284.7 953.8,-284.7 959.8,-290.7 959.8,-296.7 959.8,-296.7 959.8,-314.1 959.8,-314.1 959.8,-320.1 953.8,-326.1 947.8,-326.1"/>
<text xml:space="preserve" text-anchor="middle" x="823" y="-308.45" font-family="Helvetica,sans-Serif" font-size="11.00" fill="#0f172a">Ephemeral Staging Deploy Agent</text>
<text xml:space="preserve" text-anchor="middle" x="823" y="-294.95" font-family="Helvetica,sans-Serif" font-size="11.00" fill="#0f172a">ServiceAccount: staging&#45;deployer</text>
</g>
<!-- jenkins&#45;&gt;staging_agent -->
<g id="edge8" class="edge">
<title>jenkins&#45;&gt;staging_agent</title>
<path fill="none" stroke="#475569" stroke-width="1.1" d="M775.35,-174C844.68,-205.54 950,-253.45 950,-253.45 950,-253.45 950,-264.7 950,-264.7 950,-264.7 924.31,-272.73 896.04,-281.57"/>
<polygon fill="#475569" stroke="#475569" stroke-width="1.1" points="895.58,-278.96 889.21,-283.7 897.15,-283.97 895.58,-278.96"/>
<text xml:space="preserve" text-anchor="middle" x="1007.38" y="-256.15" font-family="Helvetica,sans-Serif" font-size="9.00" fill="#475569">create after security gate</text>
</g>
<!-- prod_agent -->
<g id="node9" class="node">
<title>prod_agent</title>
<path fill="#eff6ff" stroke="#60a5fa" stroke-width="1.2" d="M648.8,-326.1C648.8,-326.1 399.2,-326.1 399.2,-326.1 393.2,-326.1 387.2,-320.1 387.2,-314.1 387.2,-314.1 387.2,-296.7 387.2,-296.7 387.2,-290.7 393.2,-284.7 399.2,-284.7 399.2,-284.7 648.8,-284.7 648.8,-284.7 654.8,-284.7 660.8,-290.7 660.8,-296.7 660.8,-296.7 660.8,-314.1 660.8,-314.1 660.8,-320.1 654.8,-326.1 648.8,-326.1"/>
<text xml:space="preserve" text-anchor="middle" x="524" y="-308.45" font-family="Helvetica,sans-Serif" font-size="11.00" fill="#0f172a">Ephemeral Production Deploy Agent</text>
<text xml:space="preserve" text-anchor="middle" x="524" y="-294.95" font-family="Helvetica,sans-Serif" font-size="11.00" fill="#0f172a">ServiceAccount: production&#45;deployer</text>
</g>
<!-- jenkins&#45;&gt;prod_agent -->
<g id="edge13" class="edge">
<title>jenkins&#45;&gt;prod_agent</title>
<path fill="none" stroke="#475569" stroke-width="1.1" d="M700.17,-174C679.8,-208.75 647,-264.7 647,-264.7 647,-264.7 622.33,-272.66 595.09,-281.45"/>
<polygon fill="#475569" stroke="#475569" stroke-width="1.1" points="594.5,-278.89 588.17,-283.69 596.11,-283.88 594.5,-278.89"/>
<text xml:space="preserve" text-anchor="middle" x="711.03" y="-256.15" font-family="Helvetica,sans-Serif" font-size="9.00" fill="#475569">create only after approval</text>
</g>
<!-- api -->
<g id="node13" class="node">
<title>api</title>
<path fill="#f8fafc" stroke="#334155" stroke-width="1.2" d="M507.8,-57.4C507.8,-57.4 258.2,-57.4 258.2,-57.4 252.2,-57.4 246.2,-51.4 246.2,-45.4 246.2,-45.4 246.2,-28 246.2,-28 246.2,-22 252.2,-16 258.2,-16 258.2,-16 507.8,-16 507.8,-16 513.8,-16 519.8,-22 519.8,-28 519.8,-28 519.8,-45.4 519.8,-45.4 519.8,-51.4 513.8,-57.4 507.8,-57.4"/>
<text xml:space="preserve" text-anchor="middle" x="383" y="-39.75" font-family="Helvetica,sans-Serif" font-size="11.00" fill="#0f172a">Kubernetes API Server</text>
<text xml:space="preserve" text-anchor="middle" x="383" y="-26.25" font-family="Helvetica,sans-Serif" font-size="11.00" fill="#0f172a">Create / delete ephemeral agent Pods</text>
</g>
<!-- jenkins&#45;&gt;api -->
<g id="edge17" class="edge">
<title>jenkins&#45;&gt;api</title>
<path fill="none" stroke="#475569" stroke-width="1.1" d="M632.4,-118.06C577.56,-100.39 506.61,-77.53 454.41,-60.71"/>
<polygon fill="#475569" stroke="#475569" stroke-width="1.1" points="455.4,-58.27 447.46,-58.47 453.79,-63.27 455.4,-58.27"/>
<text xml:space="preserve" text-anchor="middle" x="603.56" y="-90" font-family="Helvetica,sans-Serif" font-size="9.00" fill="#475569">Kubernetes API</text>
</g>
<!-- buildkit -->
<g id="node5" class="node">
<title>buildkit</title>
<path fill="#eff6ff" stroke="#60a5fa" stroke-width="1.2" d="M514.8,-478.75C514.8,-478.75 265.2,-478.75 265.2,-478.75 259.2,-478.75 253.2,-472.75 253.2,-466.75 253.2,-466.75 253.2,-449.35 253.2,-449.35 253.2,-443.35 259.2,-437.35 265.2,-437.35 265.2,-437.35 514.8,-437.35 514.8,-437.35 520.8,-437.35 526.8,-443.35 526.8,-449.35 526.8,-449.35 526.8,-466.75 526.8,-466.75 526.8,-472.75 520.8,-478.75 514.8,-478.75"/>
<text xml:space="preserve" text-anchor="middle" x="390" y="-461.1" font-family="Helvetica,sans-Serif" font-size="11.00" fill="#0f172a">Rootless BuildKit</text>
<text xml:space="preserve" text-anchor="middle" x="390" y="-447.6" font-family="Helvetica,sans-Serif" font-size="11.00" fill="#0f172a">Client / Server mTLS</text>
</g>
<!-- build&#45;&gt;buildkit -->
<g id="edge4" class="edge">
<title>build&#45;&gt;buildkit</title>
<path fill="none" stroke="#475569" stroke-width="1.1" d="M168.37,-167.1C209.61,-221.06 322.79,-369.12 369.46,-430.18"/>
<polygon fill="#475569" stroke="#475569" stroke-width="1.1" points="367.16,-431.5 373.8,-435.86 371.33,-428.31 367.16,-431.5"/>
<text xml:space="preserve" text-anchor="middle" x="354.84" y="-302.47" font-family="Helvetica,sans-Serif" font-size="9.00" fill="#475569">mTLS</text>
</g>
<!-- build&#45;&gt;api -->
<g id="edge18" class="edge">
<title>build&#45;&gt;api</title>
<path fill="none" stroke="#475569" stroke-width="1.1" stroke-dasharray="5,2" d="M187.89,-124.82C216.65,-108.18 252.75,-87.3 252.75,-87.3 252.75,-87.3 287.77,-73.96 321.5,-61.12"/>
<polygon fill="#475569" stroke="#475569" stroke-width="1.1" points="322.39,-63.59 328.47,-58.47 320.52,-58.68 322.39,-63.59"/>
<text xml:space="preserve" text-anchor="middle" x="286.88" y="-90" font-family="Helvetica,sans-Serif" font-size="9.00" fill="#475569">Kubernetes API</text>
</g>
<!-- ghcr -->
<g id="node6" class="node">
<title>ghcr</title>
<path fill="#f8fafc" stroke="#334155" stroke-width="1.2" d="M1640.8,-326.1C1640.8,-326.1 1391.2,-326.1 1391.2,-326.1 1385.2,-326.1 1379.2,-320.1 1379.2,-314.1 1379.2,-314.1 1379.2,-296.7 1379.2,-296.7 1379.2,-290.7 1385.2,-284.7 1391.2,-284.7 1391.2,-284.7 1640.8,-284.7 1640.8,-284.7 1646.8,-284.7 1652.8,-290.7 1652.8,-296.7 1652.8,-296.7 1652.8,-314.1 1652.8,-314.1 1652.8,-320.1 1646.8,-326.1 1640.8,-326.1"/>
<text xml:space="preserve" text-anchor="middle" x="1516" y="-308.45" font-family="Helvetica,sans-Serif" font-size="11.00" fill="#0f172a">GitHub Container Registry (GHCR)</text>
<text xml:space="preserve" text-anchor="middle" x="1516" y="-294.95" font-family="Helvetica,sans-Serif" font-size="11.00" fill="#0f172a">Immutable SHA256 digests</text>
</g>
<!-- buildkit&#45;&gt;ghcr -->
<g id="edge5" class="edge">
<title>buildkit&#45;&gt;ghcr</title>
<path fill="none" stroke="#475569" stroke-width="1.1" d="M527,-447.9C775.02,-431.35 1273,-398.1 1273,-398.1 1273,-398.1 1382.23,-356.88 1454.22,-329.71"/>
<polygon fill="#475569" stroke="#475569" stroke-width="1.1" points="1454.72,-332.33 1460.81,-327.23 1452.87,-327.42 1454.72,-332.33"/>
<text xml:space="preserve" text-anchor="middle" x="1199.58" y="-408.8" font-family="Helvetica,sans-Serif" font-size="9.00" fill="#475569">push immutable images</text>
</g>
<!-- trivy -->
<g id="node7" class="node">
<title>trivy</title>
<path fill="#ecfdf5" stroke="#34d399" stroke-width="1.2" d="M1830.8,-166.7C1830.8,-166.7 1581.2,-166.7 1581.2,-166.7 1575.2,-166.7 1569.2,-160.7 1569.2,-154.7 1569.2,-154.7 1569.2,-137.3 1569.2,-137.3 1569.2,-131.3 1575.2,-125.3 1581.2,-125.3 1581.2,-125.3 1830.8,-125.3 1830.8,-125.3 1836.8,-125.3 1842.8,-131.3 1842.8,-137.3 1842.8,-137.3 1842.8,-154.7 1842.8,-154.7 1842.8,-160.7 1836.8,-166.7 1830.8,-166.7"/>
<text xml:space="preserve" text-anchor="middle" x="1706" y="-149.05" font-family="Helvetica,sans-Serif" font-size="11.00" fill="#0f172a">Trivy Security Gate</text>
<text xml:space="preserve" text-anchor="middle" x="1706" y="-135.55" font-family="Helvetica,sans-Serif" font-size="11.00" fill="#0f172a">HIGH / CRITICAL blocked</text>
</g>
<!-- ghcr&#45;&gt;trivy -->
<g id="edge6" class="edge">
<title>ghcr&#45;&gt;trivy</title>
<path fill="none" stroke="#475569" stroke-width="1.1" d="M1576.55,-284.2C1605.94,-274.39 1635,-264.7 1635,-264.7 1635,-264.7 1668.27,-209.54 1689.26,-174.75"/>
<polygon fill="#475569" stroke="#475569" stroke-width="1.1" points="1691.31,-176.44 1692.93,-168.66 1686.81,-173.73 1691.31,-176.44"/>
<text xml:space="preserve" text-anchor="middle" x="1674.07" y="-256.15" font-family="Helvetica,sans-Serif" font-size="9.00" fill="#475569">scan by digest</text>
</g>
<!-- production -->
<g id="node12" class="node">
<title>production</title>
<path fill="#f0fdf4" stroke="#4ade80" stroke-width="1.2" d="M1531.8,-166.7C1531.8,-166.7 1282.2,-166.7 1282.2,-166.7 1276.2,-166.7 1270.2,-160.7 1270.2,-154.7 1270.2,-154.7 1270.2,-137.3 1270.2,-137.3 1270.2,-131.3 1276.2,-125.3 1282.2,-125.3 1282.2,-125.3 1531.8,-125.3 1531.8,-125.3 1537.8,-125.3 1543.8,-131.3 1543.8,-137.3 1543.8,-137.3 1543.8,-154.7 1543.8,-154.7 1543.8,-160.7 1537.8,-166.7 1531.8,-166.7"/>
<text xml:space="preserve" text-anchor="middle" x="1407" y="-149.05" font-family="Helvetica,sans-Serif" font-size="11.00" fill="#0f172a">helpdesk&#45;production namespace</text>
<text xml:space="preserve" text-anchor="middle" x="1407" y="-135.55" font-family="Helvetica,sans-Serif" font-size="11.00" fill="#0f172a">Helm deploy same verified SHA256 digests</text>
</g>
<!-- ghcr&#45;&gt;production -->
<g id="edge16" class="edge">
<title>ghcr&#45;&gt;production</title>
<path fill="none" stroke="#2563eb" stroke-width="1.1" stroke-dasharray="5,2" d="M1504.54,-284.26C1496.43,-270.02 1487,-253.45 1487,-253.45 1487,-253.45 1451.19,-205.8 1427.49,-174.26"/>
<polygon fill="#2563eb" stroke="#2563eb" stroke-width="1.1" points="1429.65,-172.77 1423.05,-168.35 1425.46,-175.93 1429.65,-172.77"/>
<text xml:space="preserve" text-anchor="middle" x="1561.14" y="-256.15" font-family="Helvetica,sans-Serif" font-size="9.00" fill="#2563eb">same verified SHA256 digests</text>
</g>
<!-- trivy&#45;&gt;jenkins -->
<g id="edge7" class="edge">
<title>trivy&#45;&gt;jenkins</title>
<path fill="none" stroke="#475569" stroke-width="1.1" d="M1670.07,-167.09C1625.7,-193.15 1556,-234.06 1556,-234.06 1556,-234.06 952,-234.06 952,-234.06 952,-234.06 867.14,-202.4 799.19,-177.04"/>
<polygon fill="#475569" stroke="#475569" stroke-width="1.1" points="800.5,-174.73 792.56,-174.57 798.67,-179.65 800.5,-174.73"/>
<text xml:space="preserve" text-anchor="middle" x="1248" y="-256.15" font-family="Helvetica,sans-Serif" font-size="9.00" fill="#475569">gate passed</text>
</g>
<!-- staging_agent&#45;&gt;jenkins -->
<g id="edge10" class="edge">
<title>staging_agent&#45;&gt;jenkins</title>
<path fill="none" stroke="#475569" stroke-width="1.1" stroke-dasharray="5,2" d="M811.14,-284.26C802.76,-270.02 793,-253.45 793,-253.45 793,-253.45 763.21,-212.26 740.69,-181.13"/>
<polygon fill="#475569" stroke="#475569" stroke-width="1.1" points="742.93,-179.75 736.41,-175.21 738.67,-182.83 742.93,-179.75"/>
<text xml:space="preserve" text-anchor="middle" x="862.86" y="-256.15" font-family="Helvetica,sans-Serif" font-size="9.00" fill="#475569">job complete / Pod removed</text>
</g>
<!-- staging -->
<g id="node10" class="node">
<title>staging</title>
<path fill="#f0fdf4" stroke="#4ade80" stroke-width="1.2" d="M1225.8,-166.7C1225.8,-166.7 976.2,-166.7 976.2,-166.7 970.2,-166.7 964.2,-160.7 964.2,-154.7 964.2,-154.7 964.2,-137.3 964.2,-137.3 964.2,-131.3 970.2,-125.3 976.2,-125.3 976.2,-125.3 1225.8,-125.3 1225.8,-125.3 1231.8,-125.3 1237.8,-131.3 1237.8,-137.3 1237.8,-137.3 1237.8,-154.7 1237.8,-154.7 1237.8,-160.7 1231.8,-166.7 1225.8,-166.7"/>
<text xml:space="preserve" text-anchor="middle" x="1101" y="-149.05" font-family="Helvetica,sans-Serif" font-size="11.00" fill="#0f172a">helpdesk&#45;staging namespace</text>
<text xml:space="preserve" text-anchor="middle" x="1101" y="-135.55" font-family="Helvetica,sans-Serif" font-size="11.00" fill="#0f172a">Helm deploy + verify</text>
</g>
<!-- staging_agent&#45;&gt;staging -->
<g id="edge9" class="edge">
<title>staging_agent&#45;&gt;staging</title>
<path fill="none" stroke="#475569" stroke-width="1.1" d="M934.27,-284.12C957.44,-279.9 975,-276.7 975,-276.7 975,-276.7 1276,-264.7 1276,-264.7 1276,-264.7 1276,-253.45 1276,-253.45 1276,-253.45 1258,-245.45 1258,-245.45 1258,-245.45 1187.19,-201.04 1140.68,-171.88"/>
<polygon fill="#475569" stroke="#475569" stroke-width="1.1" points="1142.31,-169.81 1134.56,-168.04 1139.52,-174.25 1142.31,-169.81"/>
<text xml:space="preserve" text-anchor="middle" x="1323.25" y="-256.15" font-family="Helvetica,sans-Serif" font-size="9.00" fill="#475569">Helm deploy + verify</text>
</g>
<!-- staging_agent&#45;&gt;api -->
<g id="edge19" class="edge">
<title>staging_agent&#45;&gt;api</title>
<path fill="none" stroke="#475569" stroke-width="1.1" stroke-dasharray="5,2" d="M713.2,-284.12C690.32,-279.9 673,-276.7 673,-276.7 673,-276.7 388,-264.7 388,-264.7 388,-264.7 388,-253.45 388,-253.45 388,-253.45 429,-245.45 429,-245.45 429,-245.45 429,-117.3 429,-117.3 429,-117.3 412.38,-88.55 399.12,-65.6"/>
<polygon fill="#475569" stroke="#475569" stroke-width="1.1" points="401.47,-64.41 395.44,-59.23 396.92,-67.04 401.47,-64.41"/>
<text xml:space="preserve" text-anchor="middle" x="463.12" y="-143.07" font-family="Helvetica,sans-Serif" font-size="9.00" fill="#475569">Kubernetes API</text>
</g>
<!-- prod_agent&#45;&gt;jenkins -->
<g id="edge15" class="edge">
<title>prod_agent&#45;&gt;jenkins</title>
<path fill="none" stroke="#475569" stroke-width="1.1" stroke-dasharray="5,2" d="M519.12,-284.55C516.69,-274.62 514.25,-264.7 514.25,-264.7 514.25,-264.7 514.25,-253.45 514.25,-253.45 514.25,-253.45 532,-245.45 532,-245.45 532,-245.45 603.99,-206.93 657.91,-178.08"/>
<polygon fill="#475569" stroke="#475569" stroke-width="1.1" points="658.88,-180.54 664.25,-174.69 656.4,-175.91 658.88,-180.54"/>
<text xml:space="preserve" text-anchor="middle" x="577.62" y="-256.15" font-family="Helvetica,sans-Serif" font-size="9.00" fill="#475569">job complete / Pod removed</text>
</g>
<!-- prod_agent&#45;&gt;production -->
<g id="edge14" class="edge">
<title>prod_agent&#45;&gt;production</title>
<path fill="none" stroke="#475569" stroke-width="1.1" d="M633.8,-284.12C656.68,-279.9 674,-276.7 674,-276.7 674,-276.7 1377,-264.7 1377,-264.7 1377,-264.7 1390.71,-210.93 1399.59,-176.07"/>
<polygon fill="#475569" stroke="#475569" stroke-width="1.1" points="1402.12,-176.76 1401.43,-168.85 1397.04,-175.47 1402.12,-176.76"/>
<text xml:space="preserve" text-anchor="middle" x="1407.69" y="-256.15" font-family="Helvetica,sans-Serif" font-size="9.00" fill="#475569">Helm deploy</text>
</g>
<!-- prod_agent&#45;&gt;api -->
<g id="edge20" class="edge">
<title>prod_agent&#45;&gt;api</title>
<path fill="none" stroke="#475569" stroke-width="1.1" stroke-dasharray="5,2" d="M439.03,-284.2C397.78,-274.39 357,-264.7 357,-264.7 357,-264.7 357,-253.45 357,-253.45 357,-253.45 358.75,-117.3 358.75,-117.3 358.75,-117.3 367.28,-89.3 374.22,-66.51"/>
<polygon fill="#475569" stroke="#475569" stroke-width="1.1" points="376.72,-67.32 376.4,-59.38 371.7,-65.79 376.72,-67.32"/>
<text xml:space="preserve" text-anchor="middle" x="392.88" y="-143.07" font-family="Helvetica,sans-Serif" font-size="9.00" fill="#475569">Kubernetes API</text>
</g>
<!-- approval -->
<g id="node11" class="node">
<title>approval</title>
<polygon fill="#fff7ed" stroke="#fb923c" stroke-width="1.2" points="1080,-67.3 869.33,-36.7 1080,-6.1 1290.67,-36.7 1080,-67.3"/>
<text xml:space="preserve" text-anchor="middle" x="1080" y="-39.75" font-family="Helvetica,sans-Serif" font-size="11.00" fill="#0f172a">Manual Production Approval</text>
<text xml:space="preserve" text-anchor="middle" x="1080" y="-26.25" font-family="Helvetica,sans-Serif" font-size="11.00" fill="#0f172a">No deploy agent held while waiting</text>
</g>
<!-- staging&#45;&gt;approval -->
<g id="edge11" class="edge">
<title>staging&#45;&gt;approval</title>
<path fill="none" stroke="#475569" stroke-width="1.1" d="M1097.05,-124.82C1094.34,-110.99 1090.67,-92.22 1087.43,-75.64"/>
<polygon fill="#475569" stroke="#475569" stroke-width="1.1" points="1090.01,-75.19 1086,-68.34 1084.86,-76.2 1090.01,-75.19"/>
<text xml:space="preserve" text-anchor="middle" x="1112.38" y="-90" font-family="Helvetica,sans-Serif" font-size="9.00" fill="#475569">validated</text>
</g>
<!-- approval&#45;&gt;jenkins -->
<g id="edge12" class="edge">
<title>approval&#45;&gt;jenkins</title>
<path fill="none" stroke="#475569" stroke-width="1.1" d="M1011.56,-57.88C956.44,-74.12 878.18,-97.19 816.04,-115.51"/>
<polygon fill="#475569" stroke="#475569" stroke-width="1.1" points="815.43,-112.95 808.98,-117.59 816.92,-117.99 815.43,-112.95"/>
<text xml:space="preserve" text-anchor="middle" x="930.29" y="-90" font-family="Helvetica,sans-Serif" font-size="9.00" fill="#475569">approved</text>
</g>
<!-- controls -->
<g id="node14" class="node">
<title>controls</title>
<polygon fill="#fff7ed" stroke="#fdba74" stroke-width="1.2" points="1843.84,-57.4 1316.16,-57.4 1316.16,-16 1849.84,-16 1849.84,-51.4 1843.84,-57.4"/>
<polyline fill="none" stroke="#fdba74" stroke-width="1.2" points="1843.84,-57.4 1843.84,-51.4"/>
<polyline fill="none" stroke="#fdba74" stroke-width="1.2" points="1849.84,-51.4 1843.84,-51.4"/>
<text xml:space="preserve" text-anchor="middle" x="1583" y="-39.75" font-family="Helvetica,sans-Serif" font-size="11.00" fill="#0f172a">Security boundaries</text>
<text xml:space="preserve" text-anchor="middle" x="1583" y="-26.25" font-family="Helvetica,sans-Serif" font-size="11.00" fill="#0f172a">Dedicated ServiceAccounts • Namespace&#45;scoped RBAC • NetworkPolicies • non&#45;root agents</text>
</g>
<!-- production&#45;&gt;controls -->
</g>
</svg>
